<svg width="550" height="407" viewBox="0 0 550 407" fill="none" xmlns="http://www.w3.org/2000/svg">
<g clip-path="url(#clip0_1105_2)">
<path opacity="0.1" d="M35.9975 159.523H83.7994V224.77H39.4927C39.3796 225.445 39.2666 226.115 39.1394 226.789H83.7994V279.401C83.7241 279.401 83.6487 279.344 83.578 279.316C82.3219 278.816 81.0658 278.286 79.8096 277.726C79.5412 277.604 79.2774 277.476 79.0042 277.358C77.748 276.764 76.4919 276.135 75.2358 275.472C74.7977 275.24 74.3596 275 73.931 274.755C66.9574 270.858 60.6194 265.918 55.1362 260.104C54.9713 259.949 54.8206 259.779 54.6651 259.632C53.902 258.802 53.1531 257.963 52.4276 257.104C52.1544 256.788 51.8907 256.468 51.6222 256.161C50.7648 255.114 49.9358 254.029 49.135 252.939C49.0126 252.774 48.8995 252.614 48.7817 252.468C45.5013 247.922 42.781 242.997 40.6797 237.798C40.6138 237.643 40.5525 237.473 40.4913 237.327C39.8413 235.676 39.2524 234.001 38.7437 232.294C38.527 231.582 38.3151 230.879 38.1361 230.138C38.0701 229.926 38.0183 229.709 37.9618 229.497C35.3145 219.049 35.0083 208.191 35.0083 197.385C35.0083 196.127 35.0083 194.869 35.0083 193.611C35.046 189.199 35.0978 184.792 35.1637 180.39C35.1889 179.258 35.2124 178.121 35.2344 176.98C35.3004 174.09 35.3946 171.194 35.517 168.291C35.5453 167.489 35.583 166.683 35.6254 165.886C35.6442 165.424 35.6678 164.961 35.696 164.499C35.7808 162.829 35.8813 161.171 35.9975 159.523Z" fill="#19A7CE"/>
<path opacity="0.1" d="M83.7994 86.8743H57.5762C61.8408 80.1976 66.4983 73.7809 71.5239 67.658C75.4242 62.8657 79.5317 58.1961 83.7994 53.6962V86.8743Z" fill="#19A7CE"/>
<path opacity="0.1" d="M83.7994 88.8837V157.504H36.1482C36.1482 157.306 36.1765 157.103 36.1953 156.905C36.2377 156.363 36.2801 155.825 36.3272 155.282C36.3743 154.65 36.4355 154.018 36.4968 153.396C36.558 152.773 36.6192 152.018 36.6946 151.334C36.77 150.65 36.8312 149.957 36.9066 149.273C36.9819 148.589 37.0573 147.905 37.1421 147.226C37.2269 146.547 37.3023 145.858 37.3965 145.179C37.4671 144.618 37.5378 144.052 37.6179 143.486C37.7262 142.688 37.8393 141.891 37.957 141.099C37.957 140.976 37.9947 140.858 38.0135 140.74C38.8744 134.94 40.0443 129.19 41.5181 123.515C43.0659 117.562 45.0416 111.729 47.4298 106.062C49.9675 100.125 52.9401 94.3827 56.3232 88.8837H83.7994Z" fill="#19A7CE"/>
<path opacity="0.1" d="M95.2175 159.523V224.77H197.322V159.523H95.2175ZM95.2175 226.789V282.825C95.8016 282.943 96.3763 283.061 96.9557 283.16C97.7329 283.311 98.5149 283.448 99.3109 283.566L99.782 283.632C100.093 283.684 100.408 283.726 100.724 283.764C101.511 283.877 102.297 283.962 103.079 284.037C103.447 284.075 103.828 284.103 104.2 284.136L105.11 284.202C105.604 284.24 106.094 284.268 106.584 284.287C106.885 284.287 107.187 284.311 107.493 284.32C107.799 284.33 107.964 284.32 108.209 284.32H109.099C109.504 284.32 109.91 284.32 110.31 284.32H110.828C111.233 284.32 111.638 284.32 112.039 284.283H112.062C112.345 284.283 112.623 284.283 112.905 284.25C112.985 284.254 113.066 284.254 113.146 284.25C113.381 284.25 113.617 284.25 113.843 284.221C113.896 284.217 113.95 284.217 114.003 284.221C114.526 284.188 115.053 284.146 115.586 284.099C116.118 284.051 116.622 283.995 117.154 283.938L118.223 283.806C122.593 283.194 126.914 282.273 131.154 281.052C140.683 278.391 149.996 274.67 159.52 271.948C171.824 268.434 185.428 266.703 197.317 270.981V226.789H95.2175ZM197.322 86.8743V0.00941582C186.144 -0.113727 174.997 1.19399 164.151 3.90079C138.295 10.4053 115.077 24.5133 95.2175 42.5315V86.8696H100.357V88.8837H95.2175V157.504H197.322V88.8837H121.38V86.8649L197.322 86.8743ZM328.499 57.531C322.102 57.3046 315.743 55.2811 309.987 52.1444C298.993 46.1588 290.203 36.9044 280.386 29.1027C259.99 12.8439 234.695 3.02818 208.745 0.594301V86.8743H354.492L354.854 86.4923L328.499 57.531ZM341.778 55.1726L355.858 70.6485V51.102C351.119 51.701 346.993 53.0925 341.778 55.1537V55.1726ZM355.858 296.74V226.789H325.833C325.758 226.492 325.673 226.19 325.579 225.888C325.668 226.19 325.748 226.492 325.828 226.789H208.745V277.372C209.856 278.198 210.954 279.07 212.042 279.948C213.217 280.91 214.383 281.883 215.542 282.868L216.71 283.834C217.271 284.306 217.841 284.778 218.406 285.226C219.54 286.141 220.681 287.047 221.83 287.943C222.405 288.396 222.983 288.841 223.564 289.278C232.764 296.319 242.469 302.674 252.599 308.291C254.87 309.56 257.164 310.782 259.472 311.975C261.007 312.767 262.554 313.544 264.112 314.305C266.448 315.447 268.803 316.547 271.177 317.607C293.065 327.445 316.21 334.195 339.95 337.663C345.22 338.439 350.513 339.053 355.829 339.502V296.73H356.3L355.858 296.74ZM208.745 88.8837V157.504H355.858V88.8837H208.745ZM208.745 159.513V224.77H355.858V159.523L208.745 159.513ZM367.276 51.0076V72.8465L385.242 53.0972C379.288 52.113 373.299 51.4164 367.276 51.0076ZM367.276 159.523V224.77H510.357V159.523H367.276ZM509.853 301.914L510.357 226.789H367.276V340.262C376.492 340.646 385.722 340.534 394.926 339.927H395.086C399.483 339.644 403.859 339.241 408.215 338.719H408.314C431.558 336.01 454.285 329.931 475.782 320.673L509.853 301.914ZM537.96 170.239C537.417 168.982 536.859 167.724 536.288 166.466C535.223 164.108 534.102 161.815 532.943 159.527H521.78V224.77H550C549.976 206.29 545.304 187.423 537.96 170.239V170.239ZM521.78 226.789V291.41C529.726 283.783 536.448 275.052 541.281 265.071C547.098 253.048 549.76 240.039 549.981 226.785L521.78 226.789ZM521.78 140.509V157.49H531.898C528.83 151.653 525.453 145.984 521.78 140.509V140.509ZM424.744 63.8138C423.999 63.5261 423.25 63.2384 422.501 62.9648C414.605 60.0423 406.534 57.6132 398.337 55.6915L370.837 85.9074L370.3 86.4876L370.653 86.8696H468.528C454.895 77.4766 440.198 69.7372 424.744 63.8138V63.8138ZM471.401 88.8837H369.282L367.276 90.7185V157.504H384.869H510.357V125.147C499.01 111.406 485.913 99.2147 471.401 88.8837V88.8837Z" fill="#19A7CE"/>
<path opacity="0.1" d="M83.7994 123.5V157.504H36.1482C36.1482 157.306 36.1765 157.103 36.1953 156.905C36.2377 156.362 36.2801 155.825 36.3272 155.282C36.3743 154.65 36.4355 154.018 36.4968 153.396C36.558 152.773 36.6192 152.018 36.6946 151.334C36.77 150.65 36.8312 149.957 36.9066 149.273C36.9819 148.589 37.0573 147.905 37.1421 147.226C37.2269 146.547 37.3023 145.858 37.3965 145.179C37.4671 144.618 37.5378 144.052 37.6179 143.486C37.7262 142.688 37.8393 141.891 37.957 141.099C37.957 140.976 37.9947 140.858 38.0135 140.74C38.8744 134.94 40.0443 129.19 41.5181 123.515L83.7994 123.5Z" fill="#19A7CE"/>
<path opacity="0.1" d="M35.9975 159.523H83.7994V224.77H39.4927C39.3796 225.445 39.2666 226.115 39.1394 226.789H83.7994V279.401C83.7241 279.401 83.6487 279.344 83.578 279.316C82.3219 278.816 81.0658 278.286 79.8096 277.726C79.5412 277.604 79.2774 277.476 79.0042 277.358C77.748 276.764 76.4919 276.135 75.2358 275.472C74.7977 275.24 74.3596 275 73.931 274.755C66.9574 270.858 60.6194 265.918 55.1362 260.104C54.9713 259.949 54.8206 259.779 54.6651 259.632C53.902 258.802 53.1531 257.963 52.4276 257.104C52.1544 256.788 51.8907 256.468 51.6222 256.161C50.7648 255.114 49.9358 254.029 49.135 252.939C49.0126 252.774 48.8995 252.614 48.7817 252.468C45.5013 247.922 42.781 242.997 40.6797 237.798C40.6138 237.643 40.5525 237.473 40.4913 237.327C39.8413 235.676 39.2524 234.001 38.7437 232.294C38.527 231.582 38.3151 230.879 38.1361 230.138C38.0701 229.926 38.0183 229.709 37.9618 229.497C35.3145 219.049 35.0083 208.191 35.0083 197.385C35.0083 196.127 35.0083 194.869 35.0083 193.611C35.046 189.199 35.0978 184.792 35.1637 180.39C35.1889 179.258 35.2124 178.121 35.2344 176.98C35.3004 174.09 35.3946 171.194 35.517 168.291C35.5453 167.489 35.583 166.683 35.6254 165.886C35.6442 165.424 35.6678 164.961 35.696 164.499C35.7808 162.829 35.8813 161.171 35.9975 159.523Z" fill="#19A7CE"/>
<path opacity="0.1" d="M131.159 98.7136V157.504H95.2129V98.7136H100.338V78.8086H121.375V98.7136H131.159Z" fill="#19A7CE"/>
<path opacity="0.1" d="M131.154 159.518H95.2129V224.766H131.154V159.518Z" fill="#19A7CE"/>
<path opacity="0.1" d="M95.2175 226.789H131.158V281.033C126.919 282.255 122.598 283.174 118.228 283.783C117.87 283.834 117.517 283.877 117.159 283.915C116.631 283.976 116.108 284.033 115.586 284.08L114.008 284.207H113.847L113.15 284.245H112.91C112.627 284.245 112.35 284.278 112.067 284.283H112.043C111.638 284.283 111.238 284.311 110.833 284.32H110.315C109.914 284.32 109.514 284.32 109.104 284.32H108.218H107.498C107.192 284.32 106.89 284.32 106.584 284.283C106.1 284.264 105.61 284.235 105.114 284.198L104.205 284.132C103.828 284.103 103.451 284.066 103.079 284.028C102.288 283.959 101.503 283.869 100.724 283.759L99.782 283.627L99.3109 283.561C98.5243 283.443 97.7423 283.311 96.9557 283.16C96.3716 283.056 95.7969 282.938 95.2175 282.816V226.789Z" fill="#19A7CE"/>
<path opacity="0.1" d="M355.853 91.7704H326.215V157.499H355.853V91.7704Z" fill="#19A7CE"/>
<path opacity="0.1" d="M355.858 159.518V224.771H208.745V196.625H287.104V213.228H326.215V159.518H355.858Z" fill="#19A7CE"/>
<path opacity="0.1" d="M356.324 296.754C356.169 296.754 356.013 296.754 355.853 296.726V339.531C350.543 339.094 345.251 338.482 339.979 337.696C316.23 334.229 293.076 327.483 271.178 317.649C264.856 314.794 258.663 311.683 252.599 308.315C242.472 302.694 232.77 296.34 223.569 289.301C221.251 287.528 218.968 285.715 216.72 283.863C215.161 282.57 213.616 281.25 212.042 279.971C210.959 279.089 209.861 278.217 208.745 277.387V226.789H325.828C325.744 226.487 325.668 226.19 325.584 225.888C325.673 226.19 325.758 226.487 325.833 226.789H355.858V296.721C356.013 296.726 356.169 296.74 356.324 296.754Z" fill="#19A7CE"/>
<path opacity="0.1" d="M433.157 86.8743H413.844V80.8651H422.497V62.9648C423.247 63.2415 423.995 63.5245 424.739 63.8138V80.8651H433.152L433.157 86.8743Z" fill="#19A7CE"/>
<path opacity="0.1" d="M479.691 157.504H384.869C384.879 157.506 384.888 157.506 384.898 157.504H384.855H367.276V91.7751H372.26V140.358H395.03V111.586H413.848V88.8837H433.161V111.6H451.97V140.373H479.696L479.691 157.504Z" fill="#19A7CE"/>
<path opacity="0.1" d="M367.276 159.523V224.77H479.696V159.523H367.276ZM510.196 301.57L510.357 249.921H479.696V226.808H367.276V340.262C376.492 340.646 385.722 340.534 394.926 339.927H395.087C399.483 339.644 403.859 339.241 408.215 338.719H408.314C431.558 336.01 454.285 329.931 475.782 320.673" fill="#19A7CE"/>
<path opacity="0.1" d="M523.758 226.789H549.981C549.755 240.039 547.098 253.053 541.281 265.071C536.448 275.057 529.726 283.787 521.78 291.414V249.906H523.758V226.789Z" fill="#19A7CE"/>
<path opacity="0.1" d="M550 224.771H523.758V170.239H537.96C545.304 187.423 549.976 206.29 550 224.771Z" fill="#19A7CE"/>
<path opacity="0.1" d="M355.858 110.043H339.979V130.651H355.858V110.043Z" fill="#19A7CE"/>
<path opacity="0.1" d="M355.858 152.759H339.979V157.504H355.858V152.759Z" fill="#19A7CE"/>
<path opacity="0.1" d="M355.858 159.518H339.979V173.362H355.858V159.518Z" fill="#19A7CE"/>
<path opacity="0.1" d="M355.858 195.474H339.979V216.082H355.858V195.474Z" fill="#19A7CE"/>
<path opacity="0.1" d="M355.858 238.19H339.979V258.798H355.858V238.19Z" fill="#19A7CE"/>
<path opacity="0.1" d="M355.858 296.721C356.013 296.721 356.168 296.721 356.329 296.754C356.173 296.754 356.018 296.754 355.858 296.726V301.513H339.979V280.905H355.858V296.721Z" fill="#19A7CE"/>
<path opacity="0.1" d="M355.858 323.616V339.531C350.544 339.094 345.251 338.482 339.979 337.696V323.616H355.858Z" fill="#19A7CE"/>
<path opacity="0.1" d="M276.797 223.256H208.745V224.77H276.797V223.256Z" fill="#19A7CE"/>
<path opacity="0.1" d="M276.797 226.785H208.745V232.586H276.797V226.785Z" fill="#19A7CE"/>
<path opacity="0.1" d="M276.797 251.604H208.745V260.934H276.797V251.604Z" fill="#19A7CE"/>
<path opacity="0.1" d="M276.797 279.953V289.282H223.569C221.251 287.515 218.968 285.701 216.719 283.839C215.156 282.551 213.611 281.231 212.042 279.953H276.797Z" fill="#19A7CE"/>
<path opacity="0.1" d="M276.797 308.296V317.649H271.177C264.856 314.794 258.663 311.683 252.599 308.315L276.797 308.296Z" fill="#19A7CE"/>
<path opacity="0.1" d="M408.323 165.843H394.926V179.258H408.323V165.843Z" fill="#19A7CE"/>
<path opacity="0.1" d="M118.261 103.341H104.865V116.755H118.261V103.341Z" fill="#19A7CE"/>
<path opacity="0.1" d="M118.261 134.5H104.865V147.915H118.261V134.5Z" fill="#19A7CE"/>
<path opacity="0.1" d="M118.261 165.659H104.865V179.074H118.261V165.659Z" fill="#19A7CE"/>
<path opacity="0.1" d="M118.261 196.814H104.865V210.229H118.261V196.814Z" fill="#19A7CE"/>
<path opacity="0.1" d="M118.261 227.973H104.865V241.388H118.261V227.973Z" fill="#19A7CE"/>
<path opacity="0.1" d="M118.261 259.133H104.865V272.547H118.261V259.133Z" fill="#19A7CE"/>
<path opacity="0.1" d="M459.465 165.843H446.068V179.258H459.465V165.843Z" fill="#19A7CE"/>
<path opacity="0.1" d="M408.323 198.932H394.926V212.346H408.323V198.932Z" fill="#19A7CE"/>
<path opacity="0.1" d="M459.465 198.932H446.068V212.346H459.465V198.932Z" fill="#19A7CE"/>
<path opacity="0.1" d="M408.323 232.016H394.926V245.43H408.323V232.016Z" fill="#19A7CE"/>
<path opacity="0.1" d="M459.465 232.016H446.068V245.43H459.465V232.016Z" fill="#19A7CE"/>
<path opacity="0.1" d="M408.323 265.104H394.926V278.519H408.323V265.104Z" fill="#19A7CE"/>
<path opacity="0.1" d="M459.465 265.104H446.068V278.519H459.465V265.104Z" fill="#19A7CE"/>
<path opacity="0.1" d="M408.323 298.193H394.926V311.607H408.323V298.193Z" fill="#19A7CE"/>
<path opacity="0.1" d="M459.465 298.193H446.068V311.607H459.465V298.193Z" fill="#19A7CE"/>
<path opacity="0.1" d="M394.926 339.927V331.276H408.318V338.696L394.926 339.927Z" fill="#19A7CE"/>
<path opacity="0.1" d="M37.957 140.726V148.401H83.7994V140.726H37.957ZM42.5215 147.919H38.7531V141.212H42.5215V147.919ZM47.0859 147.919H43.3176V141.212H47.0859V147.919ZM51.641 147.919H47.8726V141.212H51.641V147.919ZM56.2054 147.919H52.437V141.212H56.2054V147.919ZM60.7652 147.919H56.9968V141.212H60.7652V147.919ZM65.3296 147.919H61.5612V141.212H65.3296V147.919ZM69.8941 147.919H66.1257V141.212H69.8941V147.919ZM74.4538 147.919H70.6854V141.212H74.4538V147.919ZM79.0135 147.919H75.2452V141.212H79.0135V147.919ZM83.578 147.919H79.8096V141.212H83.578V147.919Z" fill="#19A7CE"/>
<path opacity="0.1" d="M37.957 163.065V170.739H83.7994V163.065H37.957ZM42.5215 170.258H38.7531V163.551H42.5215V170.258ZM47.0859 170.258H43.3176V163.551H47.0859V170.258ZM51.641 170.258H47.8726V163.551H51.641V170.258ZM56.2054 170.258H52.437V163.551H56.2054V170.258ZM60.7652 170.258H56.9968V163.551H60.7652V170.258ZM65.3296 170.258H61.5612V163.551H65.3296V170.258ZM69.8941 170.258H66.1257V163.551H69.8941V170.258ZM74.4538 170.258H70.6854V163.551H74.4538V170.258ZM79.0135 170.258H75.2452V163.551H79.0135V170.258ZM83.578 170.258H79.8096V163.551H83.578V170.258Z" fill="#19A7CE"/>
<path opacity="0.1" d="M37.957 185.409V193.078H83.7994V185.409H37.957ZM42.5215 192.592H38.7531V185.885H42.5215V192.592ZM47.0859 192.592H43.3176V185.885H47.0859V192.592ZM51.641 192.592H47.8726V185.885H51.641V192.592ZM56.2054 192.592H52.437V185.885H56.2054V192.592ZM60.7652 192.592H56.9968V185.885H60.7652V192.592ZM65.3296 192.592H61.5612V185.885H65.3296V192.592ZM69.8941 192.592H66.1257V185.885H69.8941V192.592ZM74.4538 192.592H70.6854V185.885H74.4538V192.592ZM79.0135 192.592H75.2452V185.885H79.0135V192.592ZM83.578 192.592H79.8096V185.885H83.578V192.592Z" fill="#19A7CE"/>
<path opacity="0.1" d="M37.957 207.747V215.417H83.7994V207.747H37.957ZM42.5215 214.936H38.7531V208.219H42.5215V214.936ZM47.0859 214.936H43.3176V208.219H47.0859V214.936ZM51.641 214.936H47.8726V208.219H51.641V214.936ZM56.2054 214.936H52.437V208.219H56.2054V214.936ZM60.7652 214.936H56.9968V208.219H60.7652V214.936ZM65.3296 214.936H61.5612V208.219H65.3296V214.936ZM69.8941 214.936H66.1257V208.219H69.8941V214.936ZM74.4538 214.936H70.6854V208.219H74.4538V214.936ZM79.0135 214.936H75.2452V208.219H79.0135V214.936ZM83.578 214.936H79.8096V208.219H83.578V214.936Z" fill="#19A7CE"/>
<path opacity="0.1" d="M38.1785 230.077C38.3575 230.803 38.5694 231.52 38.7861 232.233V230.563H42.5545V237.265H40.5337C40.5902 237.426 40.6515 237.591 40.7174 237.737H83.8183V230.077H38.1785ZM47.1284 237.265H43.36V230.563H47.1284V237.265ZM51.6834 237.265H47.915V230.563H51.6834V237.265ZM56.2479 237.265H52.4795V230.563H56.2479V237.265ZM60.8076 237.265H57.0392V230.563H60.8076V237.265ZM65.372 237.265H61.6037V230.563H65.372V237.265ZM69.9365 237.265H66.1681V230.563H69.9365V237.265ZM74.4962 237.265H70.7279V230.563H74.4962V237.265ZM79.056 237.265H75.2876V230.563H79.056V237.265ZM83.6204 237.265H79.8521V230.563H83.6204V237.265Z" fill="#19A7CE"/>
<path opacity="0.1" d="M48.7959 252.416C48.9184 252.567 49.0314 252.737 49.1492 252.887H51.641V256.109L52.4465 257.052V252.869H56.2149V259.633H54.6652C54.8159 259.788 54.9619 259.953 55.1362 260.104H83.79V252.416H48.7959ZM60.7888 259.633H57.0204V252.897H60.7888V259.633ZM65.3532 259.633H61.5848V252.897H65.3532V259.633ZM69.9177 259.633H66.1493V252.897H69.9177V259.633ZM74.4774 259.633H70.709V252.897H74.4774V259.633ZM79.0372 259.633H75.2688V252.897H79.0372V259.633ZM83.6016 259.633H79.8332V252.897H83.6016V259.633Z" fill="#19A7CE"/>
<path opacity="0.1" d="M73.9451 274.755C74.3784 275 74.8165 275.226 75.2546 275.467V275.231H79.023V277.358C79.2962 277.476 79.5553 277.604 79.8238 277.726V275.231H83.5921V279.316C83.6638 279.348 83.7378 279.375 83.8135 279.396V274.755H73.9451Z" fill="#19A7CE"/>
<path opacity="0.1" d="M355.853 296.721H356.324H355.853ZM325.579 225.888C325.668 226.19 325.748 226.492 325.828 226.789C325.758 226.492 325.673 226.19 325.579 225.888ZM100.357 86.8743V88.8837H121.398V86.8649L100.357 86.8743ZM355.858 296.721H356.329H355.858ZM325.579 225.888C325.668 226.19 325.748 226.492 325.828 226.789C325.758 226.492 325.673 226.19 325.579 225.888ZM355.853 296.721H356.324H355.853ZM325.579 225.888C325.668 226.19 325.748 226.492 325.828 226.789C325.758 226.492 325.673 226.19 325.579 225.888Z" fill="#19A7CE"/>
<path opacity="0.1" d="M414.253 407C439.603 407 460.152 403.695 460.152 399.618C460.152 395.541 439.603 392.236 414.253 392.236C388.904 392.236 368.354 395.541 368.354 399.618C368.354 403.695 388.904 407 414.253 407Z" fill="#19A7CE"/>
<path opacity="0.1" d="M207.247 399.618C232.596 399.618 253.146 396.313 253.146 392.236C253.146 388.16 232.596 384.855 207.247 384.855C181.898 384.855 161.348 388.16 161.348 392.236C161.348 396.313 181.898 399.618 207.247 399.618Z" fill="#19A7CE"/>
<path d="M260.089 197.045C260.078 196.998 260.053 196.956 260.018 196.922C259.316 196.229 250.366 183.555 250.366 183.555C250.366 183.555 249.895 182.14 249.132 180.3C249.377 179.983 249.561 179.623 249.674 179.239C249.715 179.076 249.745 178.911 249.764 178.744C249.764 178.692 249.801 178.649 249.815 178.598C249.979 177.958 249.963 177.285 249.768 176.654C249.716 176.816 249.651 176.974 249.575 177.126C249.398 176.576 249.161 176.048 248.869 175.551C247.682 173.503 245.986 171.777 244.737 169.782C242.847 166.682 242.096 163.019 242.613 159.424C242.613 159.608 242.613 159.796 242.613 159.98C242.66 159.267 242.755 158.558 242.896 157.858C243.093 157.06 243.356 156.281 243.682 155.528C244.803 152.957 246.617 150.716 247.719 148.136C248.089 147.266 248.37 146.361 248.558 145.434C248.946 143.886 249.088 142.286 248.977 140.693C248.977 141.071 248.916 141.448 248.859 141.821C248.74 137.992 247.196 134.346 244.53 131.599C240.682 127.727 235.156 126.222 229.871 125.43C227.65 125.17 225.529 124.359 223.7 123.071C221.67 121.755 219.047 121.439 216.672 121.727C213.944 122.022 211.408 123.278 209.517 125.269C207.007 128.033 205.918 131.948 202.989 134.278C201.213 135.693 198.961 136.354 196.893 137.316C194.825 138.278 192.87 139.674 192.206 141.74C192.206 141.74 192.206 141.712 192.206 141.698V141.816L192.178 141.891C191.49 144.335 192.819 146.82 193.511 149.259C194.232 151.782 194.279 154.447 194.317 157.056C194.368 160.244 194.415 163.438 194.364 166.631C194.34 167.886 194.298 169.155 194.203 170.404C193.089 170.742 192.006 171.178 190.967 171.706C189.912 172.395 185.965 176.664 185.965 176.664L178.244 206.2L178.348 206.318L178.244 206.719L178.635 206.63C179.728 207.809 182.993 211.167 186.516 213.261L186.846 219.054C186.846 219.054 187.241 224.865 192.578 227.266C192.701 229.28 193.082 237.459 191.316 240.699C190.093 243.067 189.517 245.716 189.648 248.378C189.648 248.378 190.266 253.293 189.564 255.878C189.154 257.605 189.123 259.401 189.474 261.142V261.142C189.474 261.142 189.474 261.713 189.474 262.694C189.474 267.925 189.535 284.688 189.474 286.584C189.385 288.825 189.474 321.961 189.474 321.961C189.474 321.961 189.036 338.521 187.632 343.007C186.229 347.493 186.582 362.346 186.582 362.346C186.582 362.346 185.701 380.039 188.815 383.529C188.815 383.685 188.786 383.845 188.782 384.001C188.782 384.072 188.782 384.152 188.782 384.223C188.744 385.567 189.003 386.996 190.157 387.435C192.512 388.34 195.626 391.057 196.215 391.835C196.804 392.614 200.228 394.552 204.694 394.034C207.491 393.719 210.306 393.589 213.121 393.647V393.647C213.121 393.647 214.882 393.326 214.312 391.133C213.945 389.765 212.57 387.661 211.59 386.279C211.769 386.326 211.943 386.364 212.108 386.397L212.278 386.43H212.409C212.482 386.434 212.554 386.434 212.626 386.43H212.72C212.808 386.437 212.896 386.437 212.984 386.43V386.43C214.166 386.317 218.575 388.373 219.362 389.732C220.149 391.09 222.923 392.123 225.015 392.383C226.258 392.534 229.395 392.279 232.029 391.939C233.355 391.802 234.668 391.562 235.957 391.222C236.579 390.986 236.711 390.232 236.532 389.383C236.32 388.304 235.745 387.332 234.902 386.628C234.139 386.086 233.131 384.656 232.387 383.487L232.189 383.171C233.503 381.916 235.877 377.812 236.598 376.963C237.474 375.93 235.185 338.153 235.185 338.153V319.215L238.694 301.291L241.148 291.806L243.254 277.486C243.254 277.486 246.937 260.76 245.802 259.118C245.802 259.085 244.86 241.864 243.871 237.728C243.442 235.883 243.55 231.733 243.805 227.695C244.071 227.431 244.256 227.096 244.339 226.73C244.423 226.365 244.401 225.983 244.276 225.629C244.206 225.387 244.114 225.152 244.003 224.926C244.003 224.855 244.003 224.78 244.003 224.709C246.037 223.772 248.164 223.048 250.348 222.549C253.857 221.86 252.981 220.049 252.981 220.049C252.981 220.049 253.772 218.497 254.295 217.549C254.818 216.601 254.385 208.233 254.295 207.545C254.262 207.266 254.045 205.729 253.796 203.984C254.921 203.182 256.386 202.186 257.983 201.243C261.022 199.441 260.339 197.54 260.089 197.045ZM214.303 316.631C214.303 316.631 211.67 323.357 212.725 325.078C213.78 326.8 212.551 333.191 212.551 333.191L211.67 342.677C211.67 342.677 209.216 360.271 210.092 364.407C210.78 367.652 211.034 377.345 211.114 381.388C211.054 381.411 210.995 381.44 210.94 381.473L210.822 381.534C211.227 379.944 211.058 376.728 209.046 370.256L208.877 343.526C208.877 343.526 208.566 312.65 211.001 309.197C213.436 305.744 214.298 299.881 214.298 299.881C214.298 299.881 213.771 308.338 213.427 310.579C213.083 312.819 214.303 316.631 214.303 316.631ZM209.399 383.072C209.376 383.128 209.348 383.185 209.329 383.237L209.197 383.067C209.264 383.073 209.332 383.075 209.399 383.072V383.072Z" fill="url(#paint0_linear_1105_2)"/>
<path d="M236.254 393.666C234.893 394.189 227.511 395.081 225.448 394.831C223.385 394.581 220.653 393.533 219.876 392.166C219.098 390.798 214.741 388.732 213.573 388.864C213.094 388.878 212.616 388.811 212.16 388.666C211.354 388.421 210.567 388.119 209.805 387.76C209.698 387.165 209.716 386.555 209.856 385.968C209.884 385.849 209.918 385.733 209.96 385.619C210.235 384.845 210.804 384.211 211.543 383.855L211.712 383.774C212.039 383.633 212.38 383.529 212.73 383.463C216.432 382.751 231.708 384.18 231.708 384.18C231.708 384.18 232.137 384.949 232.726 385.902C233.461 387.081 234.459 388.519 235.213 389.062C236.048 389.777 236.614 390.755 236.819 391.835C236.998 392.67 236.866 393.434 236.254 393.666Z" fill="white"/>
<path opacity="0.1" d="M236.254 393.666C234.893 394.189 227.516 395.081 225.453 394.831C223.39 394.581 220.657 393.529 219.876 392.166C219.094 390.802 214.746 388.732 213.578 388.864C212.409 388.996 209.809 387.76 209.809 387.76C209.809 387.76 209.404 385.873 210.582 384.586L212.937 386.26C212.937 386.26 219.24 388.218 220.408 390.034C221.576 391.85 223.705 392.864 226.781 393.048C229.08 393.199 234.36 392.302 236.833 391.854C236.998 392.67 236.871 393.434 236.254 393.666Z" fill="black"/>
<path d="M213.705 396.071C210.926 396.017 208.147 396.148 205.386 396.463C200.963 396.982 197.586 395.048 196.997 394.25C196.408 393.453 193.36 390.76 191.019 389.817C189.875 389.373 189.606 387.93 189.658 386.581C189.658 386.51 189.658 386.43 189.658 386.359C189.701 385.505 189.827 384.656 190.035 383.826L208.363 383.435L209.951 385.59L210.196 385.921L211.161 387.237C211.161 387.237 211.599 387.812 212.174 388.652C213.144 390.067 214.501 392.156 214.864 393.538C215.443 395.75 213.705 396.071 213.705 396.071Z" fill="white"/>
<path opacity="0.1" d="M213.705 396.071C210.926 396.017 208.147 396.148 205.386 396.463C200.968 396.982 197.586 395.048 197.002 394.25C196.417 393.453 193.36 390.736 191.019 389.826C189.875 389.383 189.606 387.939 189.658 386.59C190.967 386.897 193.718 387.68 194.797 389.043C196.21 390.864 198.74 393.925 202.334 394.118C205.235 394.274 212.301 393.755 214.892 393.548C215.448 395.75 213.705 396.071 213.705 396.071Z" fill="black"/>
<path opacity="0.1" d="M211.524 383.836C211.312 385.411 210.657 385.836 210.186 385.93C210.071 385.953 209.953 385.953 209.838 385.93C209.776 385.926 209.714 385.916 209.654 385.902C209.654 385.902 193.195 389.543 189.87 386.595C189.785 386.519 189.707 386.437 189.634 386.35C189.678 385.495 189.804 384.647 190.011 383.817L208.34 383.425L209.927 385.581C210.202 384.807 210.771 384.173 211.51 383.817L211.524 383.836Z" fill="black"/>
<path opacity="0.1" d="M232.721 385.883C232.354 386.288 232.048 386.52 231.854 386.439C230.988 386.09 223.884 384.878 221.628 385.921C219.372 386.963 211.736 386.09 211.736 386.09C211.736 386.09 211.736 385.185 211.694 383.732C212.02 383.591 212.361 383.486 212.711 383.421C216.414 382.708 231.69 384.138 231.69 384.138C231.69 384.138 232.137 384.93 232.721 385.883Z" fill="black"/>
<path d="M243.47 279.188L241.388 293.594L238.967 303.14L235.5 321.187V340.29C235.5 340.29 237.752 378.298 236.885 379.336C236.018 380.374 232.726 386.284 231.859 385.939C230.992 385.595 223.889 384.378 221.633 385.416C219.376 386.454 211.741 385.59 211.741 385.59C211.741 385.59 211.566 370.841 210.7 366.676C209.833 362.511 212.259 344.809 212.259 344.809L213.126 335.267C213.126 335.267 214.341 328.842 213.3 327.107C212.259 325.371 214.859 318.616 214.859 318.616C214.859 318.616 213.648 314.791 213.997 312.536C214.346 310.282 214.859 301.777 214.859 301.777C214.859 301.777 213.997 307.683 211.59 311.15C209.183 314.616 209.489 345.686 209.489 345.686L209.659 372.572C213.997 386.807 209.659 385.416 209.659 385.416C209.659 385.416 193.2 389.062 189.875 386.109C186.549 383.156 187.501 364.572 187.501 364.572C187.501 364.572 187.157 349.648 188.542 345.139C189.926 340.63 190.365 323.965 190.365 323.965C190.365 323.965 190.275 290.641 190.365 288.391C190.43 286.504 190.365 269.613 190.365 264.335C190.365 263.354 190.365 262.774 190.365 262.774L192.352 257.831L215.905 254.878H227.172C227.172 254.878 244.13 258.868 245.882 260.59C245.92 260.619 245.952 260.654 245.976 260.694C247.112 262.359 243.47 279.188 243.47 279.188Z" fill="#19A7CE"/>
<path opacity="0.1" d="M214.873 354.856C214.873 354.856 220.055 367.35 222.499 368.218C224.944 369.086 214.873 354.856 214.873 354.856Z" fill="black"/>
<path opacity="0.1" d="M216.79 373.251C216.79 373.251 234.285 374.119 234.111 376.029C233.936 377.94 216.79 373.251 216.79 373.251Z" fill="black"/>
<path opacity="0.1" d="M193.384 368.256C194.076 368.912 206.729 370.143 205.688 371.341C204.647 372.539 194.425 374.869 194.425 374.869L193.384 368.256Z" fill="black"/>
<path opacity="0.1" d="M191.307 346.7C191.307 347.219 193.907 363.36 194.604 364.053C195.301 364.747 201.015 365.44 201.015 365.44L191.307 346.7Z" fill="black"/>
<path d="M210.172 126.076C207.69 128.854 206.616 132.793 203.723 135.142C201.966 136.557 199.743 137.231 197.699 138.193C195.654 139.156 193.629 140.622 193.021 142.802C192.343 145.254 193.652 147.759 194.34 150.212C195.051 152.749 195.094 155.4 195.136 158.056C195.183 161.268 195.235 164.48 195.179 167.692C195.094 172.697 194.679 177.932 192.027 182.173C201.604 185.225 211.788 185.64 221.831 186.031C223.76 186.169 225.699 186.12 227.62 185.885C229.284 185.553 230.93 185.136 232.552 184.635C235.758 183.786 239.061 183.362 242.378 183.376C243.824 183.376 245.298 183.465 246.692 183.088C248.087 182.711 249.429 181.744 249.806 180.348C250.14 179.093 249.651 177.758 249.01 176.631C247.842 174.574 246.184 172.857 244.931 170.829C243.652 168.687 242.893 166.273 242.715 163.784C242.538 161.294 242.946 158.797 243.909 156.495C245.02 153.905 246.81 151.65 247.903 149.056C249.022 146.271 249.32 143.222 248.761 140.273C248.201 137.323 246.808 134.596 244.747 132.415C240.946 128.519 235.491 127.01 230.272 126.208C228.074 125.948 225.978 125.137 224.176 123.849C222.174 122.529 219.579 122.208 217.233 122.5C214.527 122.804 212.02 124.073 210.172 126.076Z" fill="#3F3D56"/>
<g opacity="0.1">
<path opacity="0.1" d="M244.054 153.773C243.094 156.046 242.682 158.514 242.853 160.976C242.959 159.215 243.365 157.486 244.054 155.863C245.161 153.273 246.951 151.018 248.044 148.424C248.937 146.258 249.313 143.913 249.142 141.575C249.044 143.214 248.673 144.824 248.044 146.339C246.951 148.933 245.161 151.183 244.054 153.773Z" fill="black"/>
<path opacity="0.1" d="M195.278 157.414C195.306 159.263 195.334 161.117 195.339 162.966C195.339 160.419 195.315 157.877 195.278 155.334C195.24 152.698 195.193 150.028 194.481 147.485C194.01 145.872 193.313 144.236 193.068 142.608C192.649 144.92 193.841 147.264 194.481 149.57C195.193 152.089 195.24 154.778 195.278 157.414Z" fill="black"/>
<path opacity="0.1" d="M246.852 180.39C245.439 180.772 243.988 180.687 242.542 180.678C239.229 180.657 235.926 181.072 232.721 181.913C231.099 182.412 229.453 182.828 227.789 183.159C225.867 183.398 223.927 183.448 221.995 183.31C212.292 182.928 202.451 182.517 193.158 179.739C192.882 180.356 192.567 180.954 192.216 181.531C201.792 184.578 211.976 184.998 222.014 185.39C223.946 185.528 225.886 185.478 227.808 185.239C229.466 184.911 231.106 184.497 232.721 183.998C235.92 183.154 239.215 182.734 242.523 182.748C243.97 182.748 245.439 182.838 246.834 182.456C248.228 182.074 249.57 181.116 249.947 179.72C250.106 179.073 250.09 178.396 249.9 177.758C249.481 179.079 248.185 179.998 246.852 180.39Z" fill="black"/>
</g>
<path d="M232.9 174.8C232.552 175.583 231.082 182.347 230.733 183.041C230.385 183.734 228.482 194.833 228.307 195.455C228.133 196.078 215.763 192.852 215.763 192.852L208.316 186.602L200.662 178.975C200.662 178.975 200.436 172.093 206.074 169.886C206.457 169.735 206.851 169.612 207.252 169.518C214.091 167.872 213.403 147.047 213.403 147.047L227.441 153.117C227.441 153.117 224.841 165.268 224.93 167.612C224.954 168.4 225.571 168.89 226.376 169.187C227.622 169.542 228.918 169.683 230.21 169.603C230.21 169.603 233.249 174.022 232.9 174.8Z" fill="#FBBEBE"/>
<path d="M258.03 197.62L260.023 198.144C260.023 198.144 261.497 200.389 258.03 202.479C255.829 203.818 253.716 205.297 251.704 206.908L241.459 210.03L239.485 203.828L249.019 196.583L258.03 197.62Z" fill="#19A7CE"/>
<path opacity="0.1" d="M258.03 197.62L260.023 198.144C260.023 198.144 261.497 200.389 258.03 202.479C255.829 203.818 253.716 205.297 251.704 206.908L241.459 210.03L239.485 203.828L249.019 196.583L258.03 197.62Z" fill="black"/>
<path d="M183.261 203.611L179.276 207.516C179.276 207.516 186.464 215.846 191.994 216.365C197.525 216.884 201.09 210.03 201.09 210.03L196.305 202.484L183.261 203.611Z" fill="#19A7CE"/>
<path opacity="0.1" d="M183.261 203.611L179.276 207.516C179.276 207.516 186.464 215.846 191.994 216.365C197.525 216.884 201.09 210.03 201.09 210.03L196.305 202.484L183.261 203.611Z" fill="black"/>
<path opacity="0.1" d="M221.115 160.655C228.771 160.655 234.978 154.44 234.978 146.773C234.978 139.107 228.771 132.892 221.115 132.892C213.458 132.892 207.252 139.107 207.252 146.773C207.252 154.44 213.458 160.655 221.115 160.655Z" fill="black"/>
<path d="M221.115 159.612C228.771 159.612 234.978 153.397 234.978 145.731C234.978 138.064 228.771 131.849 221.115 131.849C213.458 131.849 207.252 138.064 207.252 145.731C207.252 153.397 213.458 159.612 221.115 159.612Z" fill="#FBBEBE"/>
<path opacity="0.1" d="M245.986 262.269C242.829 262.631 239.72 263.328 236.711 264.349C231.529 266.076 190.925 264.378 190.36 264.349C190.36 263.368 190.36 262.788 190.36 262.788L192.348 257.845L215.9 254.892H227.168C227.168 254.892 244.125 258.883 245.878 260.604C245.948 261.642 245.986 262.269 245.986 262.269Z" fill="black"/>
<path opacity="0.1" d="M232.9 174.801C232.552 175.584 231.082 182.347 230.733 183.041C230.385 183.734 228.482 194.833 228.307 195.455C228.133 196.078 215.763 192.852 215.763 192.852L208.316 186.602L200.662 178.975C200.662 178.975 200.436 172.093 206.074 169.886L220.074 186.003L226.376 169.188C227.622 169.542 228.918 169.683 230.21 169.603C230.21 169.603 233.249 174.022 232.9 174.801Z" fill="black"/>
<path d="M220.074 186.522L205.744 170.013C204.906 169.477 203.947 169.158 202.954 169.084C201.962 169.011 200.967 169.186 200.059 169.593C196.851 170.985 192.866 172.112 191.825 172.805C190.784 173.499 186.884 177.791 186.884 177.791L198.5 208.219L193.384 228.261C193.384 228.261 194.166 238.501 192.173 242.232C190.96 244.618 190.392 247.28 190.525 249.953C190.525 249.953 191.132 254.901 190.44 257.5C190.035 259.238 190.005 261.042 190.35 262.793C190.35 262.793 231.515 264.528 236.711 262.793C239.719 261.769 242.829 261.071 245.986 260.713C245.986 260.713 245.044 243.355 244.102 239.19C243.16 235.025 244.884 219.148 244.884 219.148L243.758 202.139L250.513 184.687C250.513 184.687 246.853 173.499 243.037 172.371C243.037 172.371 236.108 170.72 234.634 169.942C233.159 169.164 228.826 168.466 228.826 168.466L226.55 169.23L220.074 186.522Z" fill="#19A7CE"/>
<path opacity="0.1" d="M240.066 201.565L209.913 199.512C209.15 199.46 208.489 200.037 208.438 200.801L205.2 248.472C205.148 249.237 205.725 249.898 206.488 249.95L236.641 252.003C237.404 252.055 238.065 251.478 238.117 250.714L241.354 203.043C241.406 202.278 240.829 201.617 240.066 201.565Z" fill="black"/>
<path d="M241.104 200.53L210.951 198.476C210.188 198.425 209.528 199.002 209.476 199.766L206.238 247.437C206.187 248.201 206.763 248.863 207.526 248.915L237.679 250.968C238.442 251.02 239.103 250.443 239.155 249.678L242.392 202.007C242.444 201.243 241.867 200.582 241.104 200.53Z" fill="#3F3D56"/>
<path d="M240.109 204.266L211.432 202.314L208.485 245.712L237.162 247.665L240.109 204.266Z" fill="white"/>
<path opacity="0.1" d="M237.538 215.344L214.113 213.702L213.656 220.239L237.081 221.881L237.538 215.344Z" fill="black"/>
<path opacity="0.1" d="M236.69 241.323L232.973 241.07L232.741 244.477L236.459 244.73L236.69 241.323Z" fill="black"/>
<path opacity="0.1" d="M233.023 233.1L213.994 231.805L213.763 235.212L232.792 236.507L233.023 233.1Z" fill="black"/>
<path d="M236.56 202.644L216.746 201.295L216.39 206.532L236.204 207.881L236.56 202.644Z" fill="#3F3D56"/>
<path opacity="0.1" d="M236.56 202.644L216.746 201.295L216.39 206.532L236.204 207.881L236.56 202.644Z" fill="black"/>
<path opacity="0.1" d="M221.807 261.312C221.807 261.312 221.633 286.999 214.873 301.749C214.873 301.749 223.022 282.311 223.022 281.533C223.022 280.754 227.525 272.594 226.32 270.165C225.114 267.736 221.807 261.312 221.807 261.312Z" fill="black"/>
<path opacity="0.1" d="M222.174 142.259C221.915 139.986 222.471 137.694 223.743 135.792C223.592 137.698 224.13 139.595 225.259 141.136C226.389 142.678 228.034 143.761 229.895 144.188C229.736 144.05 229.623 143.867 229.57 143.664C229.517 143.46 229.527 143.245 229.598 143.047C230.564 144.141 231.303 145.438 232.396 146.401C233.489 147.363 235.128 147.938 236.414 147.254C238.162 146.311 238.181 143.825 237.728 141.891C236.758 137.773 234.767 133.965 231.939 130.821C231.234 129.87 230.318 129.096 229.264 128.56C228.209 128.023 227.045 127.738 225.863 127.727C223.187 127.519 220.408 127.755 218.01 128.958C216.661 129.695 215.397 130.579 214.242 131.594L207.647 136.981C207.013 137.439 206.47 138.012 206.046 138.67C205.763 139.22 205.593 139.821 205.546 140.438C205.378 142.203 205.704 143.979 206.488 145.568C207.272 147.157 208.482 148.495 209.984 149.433C209.952 148.039 210.335 146.667 211.084 145.491C211.833 144.315 212.914 143.389 214.19 142.83C214.39 142.997 214.552 143.205 214.665 143.441C214.778 143.676 214.839 143.932 214.845 144.193L216.234 141.712C216.441 141.261 216.767 140.874 217.177 140.594C218.034 140.122 219.103 140.679 219.833 141.344C220.563 142.009 221.275 142.839 222.254 142.943L222.292 139.25" fill="black"/>
<path d="M222.174 141.74C221.915 139.465 222.471 137.172 223.743 135.269C223.319 139.042 226.159 142.938 229.9 143.665C229.741 143.528 229.627 143.346 229.574 143.143C229.521 142.94 229.531 142.725 229.603 142.528C230.569 143.622 231.308 144.915 232.401 145.882C233.494 146.849 235.133 147.419 236.419 146.731C238.166 145.787 238.185 143.302 237.733 141.372C236.763 137.254 234.772 133.447 231.944 130.302C231.067 129.231 229.961 128.37 228.708 127.783C227.801 127.447 226.848 127.253 225.882 127.208C223.206 127 220.427 127.231 218.029 128.434C216.681 129.175 215.417 130.06 214.261 131.076L207.666 136.462C207.031 136.919 206.487 137.492 206.065 138.151C205.781 138.701 205.611 139.302 205.565 139.92C205.397 141.683 205.723 143.459 206.507 145.047C207.291 146.635 208.501 147.973 210.003 148.91C209.972 147.516 210.356 146.144 211.104 144.969C211.853 143.793 212.934 142.866 214.209 142.306C214.408 142.474 214.57 142.683 214.682 142.918C214.795 143.153 214.857 143.409 214.864 143.67L216.249 141.198C216.454 140.746 216.78 140.359 217.191 140.08C218.048 139.608 219.117 140.165 219.847 140.83C220.578 141.495 221.289 142.321 222.269 142.429L222.306 138.731" fill="#3F3D56"/>
<path d="M228.741 229.299C227.53 228.685 207.511 231.813 207.511 231.813C207.511 231.813 204.213 230.869 196.243 229.558C188.273 228.247 187.764 220.445 187.764 220.445L186.893 204.828L189.583 202.469L201.104 210.016C201.104 210.016 201.283 213.832 201.104 214.521C200.991 214.992 200.69 215.554 200.718 215.936C200.727 216.039 200.769 216.137 200.839 216.214C200.909 216.291 201.002 216.342 201.104 216.36C201.886 216.558 212.541 218.285 212.541 218.285C212.541 218.285 237.238 216.592 243.395 224.921C243.883 225.533 244.252 226.23 244.483 226.978C246.009 232.671 229.838 229.841 228.741 229.299Z" fill="#FBBEBE"/>
<path opacity="0.1" d="M244.497 227.011C243.555 227.431 242.971 227.733 242.971 227.733C242.971 227.733 234.134 227.473 229.169 225.671C224.205 223.87 218.171 224.19 218.171 224.19C218.171 224.19 197.482 220.624 200.69 215.969C200.699 216.072 200.741 216.17 200.811 216.247C200.881 216.324 200.974 216.375 201.076 216.393C201.858 216.591 212.513 218.318 212.513 218.318C212.513 218.318 237.21 216.625 243.367 224.954C243.87 225.562 244.253 226.26 244.497 227.011V227.011Z" fill="black"/>
<path d="M253.089 199.531C253.089 199.531 254.304 208.12 254.389 208.818C254.474 209.516 254.912 217.926 254.389 218.884C253.866 219.841 253.089 221.398 253.089 221.398C253.089 221.398 253.956 223.219 250.489 223.917C247.022 224.615 242.952 226.69 242.952 226.69C242.952 226.69 234.111 226.431 229.174 224.61C224.238 222.789 218.17 223.134 218.17 223.134C218.17 223.134 191.91 218.62 203.177 213.11C214.444 207.601 222.415 215.063 222.415 215.063L234.977 214.285C234.977 214.285 239.66 211.417 240.96 211.681C241.878 211.798 242.81 211.648 243.645 211.247L243.734 202.134L253.089 199.531Z" fill="#FBBEBE"/>
<path opacity="0.1" d="M189.385 178.447L186.869 178.315L179.248 208.031C179.248 208.031 187.477 205.946 191.024 208.031C194.571 210.115 201.076 210.545 201.076 210.545L198.65 186.857L189.385 178.447Z" fill="black"/>
<path d="M189.385 177.923L186.869 177.791L179.248 207.507C179.248 207.507 187.477 205.422 191.024 207.507C194.571 209.592 201.076 210.021 201.076 210.021L198.65 186.333L189.385 177.923Z" fill="#19A7CE"/>
<path opacity="0.1" d="M247.027 184.432L250.489 185.215C250.489 185.215 259.33 197.951 260.023 198.663C260.715 199.375 256.726 201.965 255.082 201.965C253.438 201.965 245.378 202.908 243.037 205.087C240.696 207.266 241.671 196.3 241.671 196.05C241.671 195.8 244.577 188.88 244.577 188.88L247.027 184.432Z" fill="black"/>
<path d="M247.027 183.913L250.489 184.692C250.489 184.692 259.33 197.451 260.023 198.144C260.715 198.837 256.726 201.446 255.082 201.446C253.438 201.446 245.378 202.389 243.037 204.568C240.696 206.748 241.671 195.781 241.671 195.531C241.671 195.281 244.596 188.338 244.596 188.338L247.027 183.913Z" fill="#19A7CE"/>
<g opacity="0.1">
<path opacity="0.1" d="M223.719 135.311C223.699 134.95 223.707 134.587 223.743 134.226C223.026 135.304 222.532 136.515 222.292 137.788V138.882C222.292 138.882 222.292 138.858 222.292 138.844V139.104C222.292 139.868 222.292 140.637 222.268 141.401H222.203V141.754C222.203 141.632 222.202 141.514 222.179 141.391C221.237 141.24 220.563 140.448 219.861 139.816C219.16 139.184 218.062 138.58 217.205 139.066C216.794 139.345 216.468 139.732 216.263 140.184L214.864 142.655C214.857 142.395 214.796 142.14 214.683 141.905C214.57 141.671 214.408 141.464 214.209 141.297C212.933 141.856 211.852 142.782 211.103 143.958C210.354 145.134 209.971 146.506 210.002 147.9C208.715 147.093 207.639 145.99 206.861 144.684C206.084 143.377 205.628 141.904 205.532 140.387C205.45 142.081 205.821 143.767 206.607 145.27C207.393 146.774 208.565 148.04 210.002 148.938C209.972 147.544 210.355 146.172 211.104 144.997C211.853 143.821 212.934 142.895 214.209 142.335C214.408 142.503 214.569 142.711 214.682 142.946C214.795 143.181 214.857 143.437 214.864 143.698L216.248 141.226C216.454 140.774 216.78 140.387 217.191 140.108C218.048 139.637 219.117 140.193 219.847 140.858C220.577 141.523 221.289 142.349 222.268 142.457C222.268 141.25 222.281 140.045 222.306 138.844C222.537 137.584 223.018 136.383 223.719 135.311V135.311Z" fill="black"/>
<path opacity="0.1" d="M222.127 140.061C222.151 139.74 222.188 139.42 222.235 139.118L222.287 137.816C222.146 138.555 222.092 139.309 222.127 140.061Z" fill="black"/>
<path opacity="0.1" d="M236.419 145.688C235.133 146.377 233.494 145.802 232.401 144.839C231.308 143.877 230.568 142.58 229.603 141.486C229.531 141.684 229.521 141.899 229.574 142.102C229.627 142.306 229.741 142.489 229.899 142.627C229.805 142.627 229.716 142.58 229.626 142.556C230.568 143.641 231.317 144.915 232.401 145.858C233.484 146.802 235.133 147.396 236.419 146.707C237.705 146.019 238.072 144.405 237.959 142.835C237.874 144.07 237.432 145.141 236.419 145.688Z" fill="black"/>
<path opacity="0.1" d="M229.598 142.547C228.023 142.117 226.616 141.215 225.567 139.963C224.518 138.71 223.877 137.166 223.729 135.538C223.46 139.24 226.249 142.953 229.899 143.665C229.744 143.53 229.632 143.351 229.578 143.152C229.525 142.953 229.531 142.742 229.598 142.547V142.547Z" fill="black"/>
</g>
<path d="M455.814 219.639C455.814 219.639 453.958 219.379 453.958 216.676C453.958 213.974 452.63 208.913 452.63 208.913C452.63 208.913 451.48 200.106 449.893 198.71C448.305 197.314 446.266 189.116 446.266 189.116C446.266 189.116 445.917 184.668 445.206 183.711C444.495 182.753 443.534 180.409 442.116 177.065C440.698 173.72 434.8 171.428 434.8 171.428C434.8 171.428 424.112 165.221 421.084 163.197C420.807 163.029 420.548 162.833 420.311 162.612C419.783 161.924 417.485 161.909 417.485 161.909C417.245 160.386 417.014 158.641 416.938 157.061C416.938 156.891 416.938 156.721 416.938 156.551C420.316 154.552 422.86 151.4 424.103 147.674C424.159 147.495 424.207 147.311 424.258 147.127C424.465 147.063 424.656 146.956 424.818 146.813C424.981 146.67 425.111 146.494 425.201 146.297C425.469 145.688 425.478 144.981 425.818 144.41C426.213 143.74 426.967 143.382 427.56 142.882C429.058 141.604 429.445 139.457 429.374 137.509C429.327 135.925 429.073 134.33 429.171 132.76C429.171 132.627 429.171 132.495 429.2 132.363C429.228 132.132 429.261 131.892 429.303 131.665C429.534 130.495 430.038 129.392 430.321 128.231C430.603 127.071 430.632 125.764 429.972 124.765C429.007 123.298 426.995 123.005 425.229 122.878C423.227 122.708 421.46 122.925 420.156 121.26C419.557 120.39 418.882 119.576 418.14 118.826C417.876 118.581 415.313 117.01 415.313 116.911C412.806 115.744 409.962 115.524 407.305 116.293C405.972 116.68 404.724 117.312 403.372 117.628C400.471 118.317 397.126 117.571 394.658 119.236C393.282 120.18 392.458 121.684 391.685 123.142C391.057 124.343 390.42 125.546 389.773 126.75C388.727 128.727 387.672 130.736 387.234 132.925C387.142 133.403 387.084 133.887 387.06 134.373V134.373C387.06 134.547 387.06 134.722 387.06 134.896C387.06 134.972 387.06 135.047 387.06 135.123C387.06 135.283 387.06 135.443 387.088 135.594C387.116 135.745 387.088 135.788 387.121 135.887C387.154 135.986 387.163 136.208 387.192 136.358C387.22 136.509 387.276 136.778 387.333 136.981C387.333 137.071 387.39 137.156 387.418 137.245C387.446 137.335 387.521 137.561 387.583 137.717C387.644 137.873 387.649 137.882 387.686 137.962C387.757 138.127 387.842 138.288 387.927 138.434C387.964 138.495 387.992 138.556 388.03 138.618C388.159 138.839 388.304 139.05 388.464 139.25C389.467 140.509 390.955 141.311 392.053 142.49C392.053 142.537 392.053 142.585 392.053 142.632C392.053 142.759 392.053 142.887 392.053 143.019C392.12 145.649 392.828 148.223 394.115 150.516C395.403 152.81 397.23 154.754 399.439 156.179C399.439 156.358 399.462 156.542 399.472 156.726C399.564 158.124 399.546 159.528 399.42 160.924C399.228 160.698 398.988 160.518 398.717 160.397C398.446 160.277 398.152 160.218 397.856 160.226C397.654 160.215 397.451 160.233 397.253 160.277L397.211 160.244V160.287C396.175 160.542 394.898 161.622 393.678 164.692C393.678 164.692 389.966 168.881 387.14 168.706C384.314 168.532 377.158 173.069 377.158 173.069C377.158 173.069 370.177 177.602 368.68 182.225C367.842 184.847 366.837 187.412 365.67 189.904L357.016 207.696L355.429 221.846C355.429 221.846 356.31 228.124 356.136 229.086C355.961 230.049 359.758 238.68 359.758 238.68C359.758 238.68 372.302 260.746 377.427 261.878L377.794 261.623C378.015 261.734 378.247 261.82 378.487 261.878L379.542 261.137C379.607 261.966 379.579 262.8 379.457 263.623C378.755 265.807 379.726 280.023 380.96 282.811C382.194 285.599 381.756 322.154 381.756 322.154L381.582 325.375C381.582 325.375 381.582 325.479 381.624 325.658L381.582 326.423L381.709 326.489C381.841 327.514 381.798 328.554 381.582 329.564C381.139 330.979 380.96 334.974 380.96 334.974C380.96 334.974 377.427 357.558 379.104 362.096C380.781 366.633 382.199 371.605 382.199 371.605C382.199 371.605 383.965 377.265 382.283 378.209C380.602 379.152 375.839 380.826 376.81 383.18C377.705 385.359 381.101 391.199 381.605 392.052L381.563 392.524L380.87 400.038C380.982 401.03 381.251 401.998 381.666 402.906C382.425 404.547 383.894 406.241 386.702 406.057C387.173 406.024 387.715 405.972 388.247 405.901C393.377 405.208 399.689 402.915 399.689 402.915C399.361 402.708 399.062 402.459 398.798 402.175V402.175C398.546 401.93 398.346 401.637 398.211 401.312C398.076 400.988 398.008 400.639 398.012 400.288C398.087 398.915 395.529 392.401 394.889 390.793L394.743 390.435C394.743 390.435 400.574 384.326 399.604 378.921C399.604 378.921 393.15 375.147 395.275 373.072C397.399 370.997 401.196 365.053 401.196 365.053C401.196 365.053 401.37 342.814 401.196 339.498C401.014 337.191 401.123 334.871 401.521 332.592C401.592 332.253 401.676 331.918 401.766 331.583C404.707 332.027 407.676 332.253 410.65 332.257C411.736 332.257 412.836 332.235 413.947 332.191C413.947 332.506 413.961 332.845 413.99 333.21C414.235 338.719 414.691 348.384 415.064 351.974C415.591 357.115 418.507 370.987 418.507 370.987C418.507 370.987 412.944 374.558 419.477 383.373C419.477 383.373 419.477 386.562 419.044 387.029C418.581 388.542 418.208 390.08 417.928 391.637C417.654 393.293 417.541 394.977 417.984 395.845C419.044 397.93 425.403 397.76 425.403 397.76C425.454 397.748 425.506 397.74 425.559 397.736C426.759 397.609 427.972 397.723 429.128 398.071C430.284 398.42 431.359 398.995 432.29 399.764C434.706 401.708 443.873 400.859 448.842 400.236C450.788 399.986 452.088 399.764 452.088 399.764C452.15 399.544 452.173 399.314 452.154 399.085V399.085C452.102 397.864 451.146 395.184 444.664 392.793C444.664 392.793 438.569 388.689 438.654 385.114H438.517H437.815C438.258 385.1 438.569 385.1 438.569 385.1C438.569 385.1 436.181 376.378 437.156 375.666C438.131 374.954 435.21 365.289 435.21 365.289C435.21 365.289 433.538 349.063 433.444 347.931C433.45 346.956 433.599 345.986 433.887 345.054L433.444 336.153C433.444 336.153 433.359 333.196 433.444 332.234C433.434 331.398 433.368 330.565 433.246 329.739C433.204 329.408 433.161 329.064 433.114 328.724C435.399 328.144 436.882 327.611 436.882 327.611L436.619 296.645C438.559 292.872 438.917 284.589 438.908 278.721C438.908 274.948 438.738 272.156 438.738 272.156L441.39 267.821C441.39 267.821 442.003 262.632 441.032 261.496C440.604 260.981 440.797 260.448 441.15 260.01C441.336 259.857 441.533 259.719 441.739 259.595C441.716 259.562 441.695 259.527 441.678 259.491C441.863 259.336 442.06 259.196 442.267 259.071C442.267 259.071 441.324 257.609 442.168 256.991C442.959 257.529 443.666 257.958 444.203 258.265C444.165 258.609 444.127 258.807 444.127 258.807L444.353 258.335C444.871 258.628 445.187 258.807 445.187 258.807C445.187 258.807 449.342 250.52 449.252 249.303C449.163 248.086 452.078 242.935 452.078 242.935C452.078 242.935 452.432 240.227 454.024 239.095C455.616 237.963 455.258 229.761 455.258 229.761C455.258 229.761 455.701 225.487 456.761 223.747C457.821 222.006 455.814 219.639 455.814 219.639ZM376.32 216.002L376.4 217.978C375.929 217.219 375.59 216.676 375.59 216.676L376.32 216.002Z" fill="url(#paint1_linear_1105_2)"/>
<path d="M445.432 255.222L444.415 259.562C444.415 259.562 436.265 255.387 434.801 250.105C433.336 244.822 437.255 242.808 437.255 242.808L444.853 246.024L445.432 255.222Z" fill="white"/>
<path opacity="0.1" d="M445.432 255.222L444.415 259.562C444.415 259.562 436.265 255.387 434.801 250.105C433.336 244.822 437.255 242.808 437.255 242.808L444.853 246.024L445.432 255.222Z" fill="black"/>
<path d="M399.698 402.911C399.698 402.911 392.161 405.684 386.98 406.033C384.229 406.217 382.783 404.528 382.039 402.901C381.634 402.004 381.37 401.049 381.257 400.071L381.94 392.595L382.298 388.619L393.306 385.751L394.865 390.529L395.011 390.887C395.633 392.486 398.148 398.967 398.073 400.321C398.067 400.671 398.132 401.019 398.264 401.343C398.396 401.667 398.592 401.962 398.841 402.208C399.096 402.477 399.384 402.714 399.698 402.911V402.911Z" fill="white"/>
<path d="M451.155 399.109C451.175 399.337 451.152 399.568 451.089 399.788C451.089 399.788 434.97 402.477 431.673 399.788C430.746 399.003 429.666 398.42 428.501 398.076C427.336 397.732 426.113 397.636 424.909 397.793C424.909 397.793 418.672 397.963 417.631 395.906C417.198 395.043 417.311 393.368 417.579 391.722C417.853 390.174 418.218 388.643 418.672 387.138L418.922 386.939L420.405 385.746L437.778 385.232H437.909C437.825 388.788 443.802 392.868 443.802 392.868C450.166 395.227 451.104 397.892 451.155 399.109Z" fill="white"/>
<path opacity="0.1" d="M451.16 399.109C451.177 399.338 451.153 399.568 451.089 399.788C451.089 399.788 434.97 402.477 431.678 399.788C430.75 399.002 429.669 398.419 428.503 398.075C427.338 397.731 426.113 397.635 424.909 397.793C424.909 397.793 418.667 397.963 417.626 395.906C417.197 395.043 417.306 393.368 417.574 391.718C419.977 391.958 423.769 392.557 425.257 393.991C427.509 396.161 431.324 398.331 433.661 398.505C435.507 398.618 446.487 398.967 451.16 399.109Z" fill="black"/>
<path opacity="0.1" d="M399.698 402.911C399.698 402.911 392.161 405.684 386.98 406.033C384.229 406.217 382.783 404.528 382.039 402.901C383.96 403.547 386.622 404.222 388.021 403.604C389.679 402.863 395.558 402.392 398.855 402.189C399.104 402.465 399.387 402.708 399.698 402.911V402.911Z" fill="black"/>
<path d="M410.881 179.385C404.663 176.966 396.665 168.971 398.662 165.235C399.103 164.291 399.367 163.274 399.439 162.235C399.568 160.823 399.586 159.404 399.496 157.99C399.355 155.672 399.077 153.364 398.662 151.08C398.662 151.08 418.074 151.518 416.943 154.381C416.613 155.226 416.557 156.683 416.651 158.311C416.745 159.938 416.976 161.792 417.221 163.353C417.556 165.49 417.899 167.126 417.899 167.126C417.899 167.126 416.708 168.791 416.015 168.881C415.323 168.971 419.802 182.852 410.881 179.385Z" fill="#CF6F80"/>
<path opacity="0.1" d="M394.992 390.864L394.846 391.024C389.043 383.996 382.024 392.76 382.024 392.76L381.921 392.571L382.279 388.595L393.287 385.727L394.846 390.505L394.992 390.864Z" fill="black"/>
<path opacity="0.1" d="M437.919 385.727C437.919 385.727 433.679 385.642 431.418 387.642C429.157 389.642 418.229 388.071 418.7 387.642C418.837 387.424 418.921 387.177 418.945 386.92L420.429 385.727L437.801 385.213C437.867 385.543 437.919 385.727 437.919 385.727Z" fill="black"/>
<path d="M402.214 330.536C401.898 331.318 401.659 332.128 401.498 332.955C401.105 335.222 400.996 337.529 401.173 339.823C401.347 343.125 401.173 365.251 401.173 365.251C401.173 365.251 397.447 371.152 395.365 373.232C393.283 375.312 399.604 379.048 399.604 379.048C400.546 384.43 394.837 390.505 394.837 390.505C389.034 383.477 382.015 392.236 382.015 392.236C382.015 392.236 378.2 385.633 377.248 383.274C376.297 380.916 380.974 379.289 382.618 378.326C384.262 377.364 382.533 371.723 382.533 371.723C382.533 371.723 381.148 366.775 379.5 362.261C377.851 357.747 381.318 335.281 381.318 335.281C381.318 335.281 381.497 331.286 381.926 329.894C382.139 328.89 382.182 327.856 382.053 326.838C382.024 326.493 381.991 326.21 381.968 326.012C381.944 325.814 381.926 325.729 381.926 325.729L381.991 325.616L384.347 321.22C384.347 321.22 403.344 327.767 402.214 330.536Z" fill="#19A7CE"/>
<path d="M437.919 385.208C437.919 385.208 433.679 385.119 431.418 387.095C429.157 389.071 418.229 387.529 418.7 387.095C419.171 386.661 419.129 383.454 419.129 383.454C412.718 374.685 418.187 371.129 418.187 371.129C418.187 371.129 415.327 357.332 414.809 352.214C414.447 348.644 413.999 339.007 413.759 333.55C413.655 331.191 413.594 329.564 413.594 329.564L418.785 328.531L419.459 328.399L432.092 325.857C432.092 325.857 432.441 328.215 432.676 330.144C432.795 330.968 432.86 331.798 432.869 332.63C432.789 333.573 432.869 336.531 432.869 336.531L433.303 345.379C433.023 346.308 432.877 347.272 432.869 348.243C432.959 349.375 434.603 365.511 434.603 365.511C434.603 365.511 437.462 375.143 436.487 375.836C435.512 376.529 437.919 385.208 437.919 385.208Z" fill="#19A7CE"/>
<path opacity="0.1" d="M416.943 154.396C416.613 155.24 416.557 156.697 416.651 158.325C414.051 159.893 411.062 160.694 408.027 160.637C404.992 160.581 402.035 159.668 399.495 158.004C399.355 155.686 399.077 153.379 398.662 151.094C398.662 151.094 418.074 151.532 416.943 154.396Z" fill="black"/>
<path d="M424.438 143.981C424.489 148.26 422.84 152.385 419.854 155.448C416.868 158.51 412.79 160.259 408.516 160.31C404.242 160.362 400.123 158.711 397.065 155.721C394.007 152.731 392.26 148.647 392.208 144.368C392.208 144.236 392.208 144.113 392.208 143.981C392.208 139.7 393.907 135.594 396.93 132.567C399.953 129.54 404.053 127.84 408.328 127.84C412.603 127.84 416.703 129.54 419.726 132.567C422.749 135.594 424.447 139.7 424.447 143.981H424.438Z" fill="#CF6F80"/>
<path opacity="0.1" d="M410.881 179.385C404.663 176.966 396.665 168.971 398.662 165.235C399.103 164.291 399.367 163.274 399.439 162.235L407.951 169.244L413.217 173.569L417.221 163.367C417.556 165.504 417.899 167.14 417.899 167.14C417.899 167.14 416.708 168.805 416.015 168.895C415.323 168.985 419.802 182.852 410.881 179.385Z" fill="black"/>
<path d="M432.893 210.361L425.785 329.932L416.514 330.54L392.505 261.208L396.443 178.895L397.277 161.504L407.951 170.282L413.217 174.607L417.339 164.103L425.003 170.791L432.893 210.361Z" fill="#19A7CE"/>
<path opacity="0.1" d="M402.213 330.536C401.898 331.318 401.659 332.128 401.497 332.955C394.746 331.914 388.188 329.865 382.043 326.875L381.916 326.809L381.958 326.05V325.654L384.314 321.258C384.314 321.258 403.344 327.767 402.213 330.536Z" fill="black"/>
<path opacity="0.1" d="M418.94 332.974C417.216 333.269 415.477 333.469 413.731 333.573C413.627 331.215 413.566 329.588 413.566 329.588L418.785 328.531L418.94 332.974Z" fill="black"/>
<path opacity="0.1" d="M432.695 330.144C429.346 331.017 424.169 331.998 419.543 331.385L419.477 328.399L432.111 325.857C432.111 325.857 432.445 328.196 432.695 330.144Z" fill="black"/>
<path opacity="0.1" d="M419.459 331.932C400.146 335.234 382.458 325.767 382.458 325.767L382.627 322.559C382.627 322.559 383.065 286.198 381.85 283.41C380.635 280.622 379.688 266.505 380.376 264.349C381.064 262.194 377.865 229.648 377.865 229.648L377.347 216.441L358.368 208.719L366.847 191.017C367.992 188.536 368.977 185.983 369.796 183.376C371.27 178.777 378.115 174.263 378.115 174.263C378.115 174.263 385.133 169.754 387.908 169.923C390.682 170.093 394.319 165.933 394.319 165.933C397.004 159.079 399.434 162.159 399.434 162.159C399.434 162.49 399.434 162.159 399.302 163.174C398.36 170.697 414.536 194.47 414.767 194.894L416.326 232.468L417.885 280.019L419.459 331.932Z" fill="black"/>
<path d="M418.94 331.932C399.628 335.234 381.935 325.767 381.935 325.767L382.109 322.559C382.109 322.559 382.543 286.198 381.327 283.41C380.112 280.622 379.165 266.491 379.858 264.316C380.55 262.142 377.333 229.629 377.333 229.629L376.81 216.422L357.836 208.7L366.315 190.998C367.457 188.517 368.442 185.967 369.264 183.362C370.738 178.777 377.606 174.258 377.606 174.258C377.606 174.258 384.625 169.749 387.394 169.919C390.164 170.088 393.82 165.933 393.82 165.933C396.509 159.079 399.472 162.159 399.472 162.159C399.472 162.49 399.189 162.631 399.34 163.174C401.413 170.47 414.056 194.47 414.287 194.894L415.846 232.468L417.372 280.042L418.94 331.932Z" fill="white"/>
<path opacity="0.1" d="M413.735 195.955C411.658 195.088 400.654 182.508 400.654 182.508V179.645C400.254 178.701 397.87 179.277 395.944 179.937L396.773 162.546L397.715 163.329C399.773 170.621 413.509 195.536 413.735 195.955Z" fill="black"/>
<path d="M414.258 194.918C412.176 194.045 401.173 181.47 401.173 181.47V178.602C400.772 177.659 398.393 178.234 396.462 178.895L397.277 161.523L398.219 162.301C400.297 169.584 414.028 194.493 414.258 194.918Z" fill="white"/>
<path opacity="0.1" d="M382.458 257.651C382.717 257.651 395.887 256.265 395.887 256.265C395.887 256.265 403.862 271.972 403.339 275.788C402.816 279.603 401.87 282.99 398.662 282.391C395.454 281.792 381.398 282.863 381.398 282.863L382.458 257.651Z" fill="black"/>
<path d="M381.935 256.609C382.199 256.609 395.369 255.222 395.369 255.222C395.369 255.222 403.339 270.953 402.821 274.726C402.303 278.5 401.347 281.929 398.144 281.33C394.94 280.731 380.875 281.802 380.875 281.802L381.935 256.609Z" fill="white"/>
<path d="M391.86 249.255C391.86 249.255 403.947 255.765 404.206 257.746C404.465 259.727 398.054 256.878 396.669 256.529C395.757 256.312 394.829 256.167 393.895 256.095L384.657 256.345L391.86 249.255Z" fill="#CF6F80"/>
<path opacity="0.1" d="M410.358 196.767C411.06 196.767 411.63 196.197 411.63 195.493C411.63 194.79 411.06 194.22 410.358 194.22C409.656 194.22 409.086 194.79 409.086 195.493C409.086 196.197 409.656 196.767 410.358 196.767Z" fill="black"/>
<path d="M410.358 196.248C411.06 196.248 411.63 195.678 411.63 194.974C411.63 194.271 411.06 193.701 410.358 193.701C409.656 193.701 409.086 194.271 409.086 194.974C409.086 195.678 409.656 196.248 410.358 196.248Z" fill="#3F3D56"/>
<path opacity="0.1" d="M412.699 251.897C413.402 251.897 413.971 251.327 413.971 250.623C413.971 249.92 413.402 249.35 412.699 249.35C411.997 249.35 411.427 249.92 411.427 250.623C411.427 251.327 411.997 251.897 412.699 251.897Z" fill="black"/>
<path d="M412.699 251.373C413.402 251.373 413.971 250.803 413.971 250.1C413.971 249.396 413.402 248.826 412.699 248.826C411.997 248.826 411.427 249.396 411.427 250.1C411.427 250.803 411.997 251.373 412.699 251.373Z" fill="#3F3D56"/>
<path opacity="0.1" d="M411.63 224.332C412.332 224.332 412.902 223.762 412.902 223.058C412.902 222.355 412.332 221.785 411.63 221.785C410.927 221.785 410.358 222.355 410.358 223.058C410.358 223.762 410.927 224.332 411.63 224.332Z" fill="black"/>
<path d="M411.63 223.813C412.332 223.813 412.902 223.243 412.902 222.539C412.902 221.836 412.332 221.266 411.63 221.266C410.927 221.266 410.358 221.836 410.358 222.539C410.358 223.243 410.927 223.813 411.63 223.813Z" fill="#3F3D56"/>
<path d="M440.948 255.831C440.948 255.831 441.815 257.133 440.948 257.717C440.081 258.302 441.033 259.802 441.033 259.802C441.033 259.802 438.87 261.066 439.822 262.213C440.774 263.359 440.171 268.505 440.171 268.505L437.57 272.84C437.57 272.84 437.726 275.618 437.735 279.372C437.735 285.231 437.391 293.466 435.488 297.221L435.743 328.026C435.743 328.026 426.637 331.361 419.016 330.342L417.885 280.91C417.885 280.91 419.534 252.878 420.142 247.501C420.497 244.709 420.642 241.895 420.575 239.081C420.575 239.081 420.316 230.666 419.445 226.766C419.445 226.766 418.502 209.842 418.408 205.158C418.366 202.917 418.484 196.38 418.615 190.163C418.761 183.366 418.926 176.956 418.926 176.956L417.207 163.329C417.207 163.329 418.926 163.159 419.445 163.848C419.677 164.065 419.929 164.259 420.198 164.428C423.17 166.438 433.656 172.617 433.656 172.617C433.656 172.617 439.459 174.928 440.849 178.239C442.238 181.55 443.204 183.899 443.878 184.843C444.551 185.786 444.919 190.22 444.919 190.22C444.919 190.22 446.916 198.38 448.475 199.762C450.034 201.144 451.155 209.917 451.155 209.917L437.377 220.766C437.377 220.766 436.167 238.812 435.908 239.511C435.649 240.209 440.948 255.831 440.948 255.831Z" fill="white"/>
<path d="M441.471 255.831C441.471 255.831 442.333 257.133 441.471 257.717C440.609 258.302 441.551 259.802 441.551 259.802C441.551 259.802 439.389 261.066 440.34 262.213C441.292 263.359 440.689 268.505 440.689 268.505L438.098 272.84C438.098 272.84 438.253 275.618 438.268 279.372C438.268 285.231 437.924 293.466 436.021 297.221L436.28 328.026C436.28 328.026 427.174 331.361 419.553 330.342L418.427 280.91C418.427 280.91 420.071 252.878 420.683 247.501C421.039 244.709 421.183 241.895 421.112 239.081C421.112 239.081 420.853 230.667 419.986 226.766C419.986 226.766 419.044 209.842 418.945 205.158C418.903 202.917 419.021 196.38 419.152 190.163C419.298 183.366 419.463 176.956 419.463 176.956L417.193 163.145C417.193 163.145 419.463 163.145 419.986 163.848C420.216 164.068 420.469 164.262 420.74 164.428V164.428C423.707 166.438 434.193 172.617 434.193 172.617C434.193 172.617 439.982 174.928 441.395 178.239C442.808 181.55 443.751 183.899 444.424 184.843C445.098 185.786 445.465 190.22 445.465 190.22C445.465 190.22 447.462 198.38 449.022 199.762C450.581 201.144 451.707 209.917 451.707 209.917L437.928 220.766C437.928 220.766 436.718 238.812 436.454 239.511C436.19 240.209 441.471 255.831 441.471 255.831Z" fill="white"/>
<path opacity="0.1" d="M424.97 180.961L426.218 184.593L419.666 191.196C419.812 184.399 419.977 177.989 419.977 177.989L417.706 164.183C417.706 164.183 419.977 164.183 420.5 164.886C420.73 165.105 420.982 165.3 421.253 165.466V165.466L426.821 181.546L424.97 180.961Z" fill="black"/>
<path d="M424.438 179.918L425.686 183.546L419.138 190.149C419.28 183.352 419.449 176.942 419.449 176.942L417.174 163.131C417.174 163.131 419.449 163.131 419.967 163.834C420.198 164.052 420.451 164.247 420.721 164.414V164.414L426.322 180.508L424.438 179.918Z" fill="white"/>
<path opacity="0.1" d="M424.438 143.981C424.439 145.68 424.172 147.37 423.646 148.985C423.558 149 423.467 148.997 423.379 148.976C423.292 148.955 423.21 148.916 423.137 148.863C423.01 144.618 420.928 140.627 418.361 137.236C417.639 136.213 416.765 135.306 415.77 134.547C414.763 133.79 413.51 133.435 412.256 133.552C410.843 133.745 409.595 134.708 408.168 134.83C406.283 134.986 404.597 133.679 402.727 133.618C401.967 133.624 401.216 133.793 400.527 134.114C399.837 134.434 399.224 134.899 398.728 135.476C397.744 136.638 397.014 137.992 396.585 139.453C395.844 141.669 395.441 143.984 395.388 146.32C395.365 147.641 395.237 149.297 394.013 149.778C394.105 148.807 393.995 147.828 393.69 146.902C393.384 145.976 392.889 145.125 392.237 144.401L392.208 144.368C392.208 144.236 392.208 144.113 392.208 143.981C392.208 139.7 393.907 135.594 396.93 132.567C399.953 129.54 404.053 127.84 408.328 127.84C412.603 127.84 416.703 129.54 419.726 132.567C422.749 135.594 424.447 139.7 424.447 143.981H424.438Z" fill="black"/>
<path d="M415.017 118.354C412.569 117.201 409.785 116.983 407.188 117.741C405.883 118.128 404.654 118.755 403.33 119.071C400.504 119.755 397.206 119.015 394.78 120.67C393.433 121.614 392.623 123.104 391.869 124.557L389.985 128.147C388.958 130.113 387.922 132.113 387.493 134.278C387.065 136.443 387.324 138.868 388.694 140.613C389.688 141.877 391.167 142.674 392.251 143.868C392.902 144.595 393.395 145.45 393.7 146.378C394.005 147.306 394.114 148.287 394.022 149.259C395.247 148.787 395.369 147.122 395.397 145.802C395.45 143.465 395.854 141.15 396.594 138.934C397.024 137.473 397.754 136.119 398.737 134.958C399.233 134.38 399.846 133.914 400.536 133.593C401.225 133.272 401.976 133.102 402.736 133.094C404.621 133.161 406.312 134.467 408.177 134.307C409.59 134.189 410.843 133.227 412.266 133.033C413.52 132.914 414.773 133.269 415.78 134.028C416.776 134.785 417.648 135.692 418.366 136.717C420.938 140.113 423.024 144.085 423.147 148.344C423.679 148.731 424.447 148.221 424.711 147.618C424.975 147.014 424.984 146.306 425.318 145.731C425.705 145.066 426.444 144.707 427.024 144.207C428.493 142.938 428.861 140.802 428.804 138.863C428.748 136.925 428.371 134.958 428.738 133.052C428.96 131.887 429.459 130.788 429.732 129.632C430.005 128.477 430.038 127.18 429.393 126.184C428.451 124.727 426.468 124.434 424.739 124.298C422.775 124.128 421.018 124.345 419.765 122.689C419.175 121.826 418.513 121.015 417.786 120.265C417.527 120.015 415.017 118.458 415.017 118.354Z" fill="#512E4E"/>
<path opacity="0.1" d="M363.804 217.823L358.887 208.714L357.327 222.771C357.327 222.771 358.194 229.016 358.02 229.973C357.846 230.931 361.572 239.515 361.572 239.515C361.572 239.515 373.88 261.472 378.906 262.599L395.864 250.449L391.361 244.723C391.361 244.723 389.801 244.114 389.41 244.723C389.41 244.723 381.045 230.317 380.183 229.28C379.321 228.242 379.485 226.153 379.485 226.153C379.485 226.153 378.185 224.766 378.619 223.464C379.052 222.162 376.132 217.653 376.132 217.653L378.817 215.139L363.804 217.823Z" fill="black"/>
<path d="M359.146 207.672L357.846 208.714L356.286 222.771C356.286 222.771 357.153 229.016 356.979 229.973C356.805 230.931 360.535 239.515 360.535 239.515C360.535 239.515 372.839 261.472 377.865 262.599L394.851 250.449L390.343 244.723C390.343 244.723 388.784 244.114 388.393 244.723C388.393 244.723 380.032 230.317 379.165 229.28C378.298 228.242 378.473 226.152 378.473 226.152C378.473 226.152 377.173 224.766 377.606 223.464C378.039 222.162 375.091 217.653 375.091 217.653L377.776 215.139L359.146 207.672Z" fill="white"/>
<path opacity="0.1" d="M439.822 262.755C440.764 263.901 440.171 269.052 440.171 269.052L437.57 273.358C437.57 273.358 437.726 276.141 437.735 279.896L433.364 281.264C432.968 281.387 432.549 281.414 432.141 281.343C431.732 281.271 431.347 281.102 431.017 280.851C430.687 280.6 430.422 280.274 430.243 279.899C430.065 279.525 429.978 279.113 429.991 278.698L430.75 254.359L440.948 258.26C440.081 258.864 441.033 260.345 441.033 260.345C441.033 260.345 438.87 261.609 439.822 262.755Z" fill="black"/>
<path d="M440.34 262.236C441.282 263.378 440.689 268.528 440.689 268.528L438.098 272.84C438.098 272.84 438.253 275.618 438.268 279.372L433.816 280.764C433.43 280.885 433.02 280.912 432.621 280.843C432.221 280.773 431.845 280.609 431.522 280.363C431.199 280.118 430.94 279.799 430.765 279.433C430.591 279.067 430.506 278.665 430.519 278.259L431.277 253.836L441.471 257.746C440.599 258.35 441.551 259.831 441.551 259.831C441.551 259.831 439.389 261.09 440.34 262.236Z" fill="white"/>
<path d="M443.722 250.623C443.722 250.623 443.03 255.053 441.296 255.312C439.563 255.571 438.786 262.477 437.057 262.236C435.328 261.996 436.473 255.812 436.534 254.614C436.595 253.416 434.65 248.454 436.101 247.326C437.551 246.199 442.168 247.326 442.168 247.326L443.722 250.623Z" fill="#CF6F80"/>
<path opacity="0.1" d="M447.387 216.521L450.651 209.917C450.651 209.917 451.956 214.95 451.956 217.639C451.956 220.327 453.774 220.591 453.774 220.591C453.774 220.591 455.767 222.95 454.717 224.671C453.666 226.393 453.247 230.657 453.247 230.657C453.247 230.657 453.591 238.812 452.032 239.94C450.472 241.067 450.124 243.76 450.124 243.76C450.124 243.76 447.265 248.878 447.354 250.095C447.444 251.312 443.369 259.552 443.369 259.552C443.369 259.552 445.362 249.312 433.75 244.888C433.75 244.888 433.661 241.416 434.527 240.463C435.394 239.51 436.746 239.048 435.898 234.256C435.05 229.464 435.653 223.686 435.653 222.53C435.653 221.374 438.253 214.172 438.253 214.172L447.387 216.521Z" fill="black"/>
<path d="M448.838 208.974L451.692 209.917C451.692 209.917 452.997 214.95 452.997 217.639C452.997 220.327 454.815 220.591 454.815 220.591C454.815 220.591 456.808 222.95 455.757 224.671C454.707 226.393 454.283 230.657 454.283 230.657C454.283 230.657 454.631 238.812 453.072 239.94C451.513 241.067 451.188 243.76 451.188 243.76C451.188 243.76 448.329 248.878 448.418 250.095C448.508 251.312 444.429 259.552 444.429 259.552C444.429 259.552 446.421 249.312 434.81 244.888C434.81 244.888 434.725 241.416 435.592 240.463C436.459 239.51 437.81 239.048 436.963 234.256C436.115 229.464 436.718 223.686 436.718 222.53C436.718 221.374 439.318 214.172 439.318 214.172L448.838 208.974Z" fill="white"/>
<path opacity="0.1" d="M385.774 380.133C385.774 380.133 390.324 377.27 393.311 379.35C396.297 381.43 385.774 380.133 385.774 380.133Z" fill="black"/>
<path opacity="0.1" d="M421.14 371.28C421.14 371.28 425.168 370.761 428.55 374.407C431.932 378.053 421.14 371.28 421.14 371.28Z" fill="black"/>
<g opacity="0.1">
<path opacity="0.1" d="M427.024 143.17C426.444 143.674 425.7 144.028 425.314 144.693C424.984 145.264 424.975 145.971 424.711 146.58C424.447 147.188 423.679 147.693 423.142 147.306C423.02 143.061 420.933 139.075 418.366 135.679C417.648 134.656 416.776 133.75 415.78 132.995C414.772 132.235 413.517 131.878 412.261 131.995C410.848 132.189 409.604 133.151 408.177 133.274C406.293 133.429 404.602 132.123 402.732 132.061C401.972 132.067 401.222 132.236 400.533 132.557C399.844 132.877 399.232 133.342 398.737 133.92C397.754 135.081 397.024 136.436 396.594 137.896C395.854 140.112 395.45 142.428 395.398 144.764C395.369 146.08 395.247 147.721 394.031 148.212C394.06 148.562 394.06 148.914 394.031 149.264C395.261 148.792 395.383 147.127 395.412 145.806C395.465 143.47 395.868 141.155 396.608 138.939C397.038 137.478 397.768 136.124 398.751 134.962C399.246 134.385 399.859 133.92 400.547 133.598C401.236 133.277 401.986 133.107 402.746 133.099C404.63 133.165 406.326 134.472 408.191 134.311C409.604 134.193 410.857 133.231 412.275 133.038C413.531 132.919 414.786 133.274 415.794 134.033C416.79 134.79 417.662 135.697 418.38 136.722C420.947 140.118 423.034 144.089 423.156 148.349C423.693 148.735 424.461 148.226 424.725 147.622C424.989 147.018 424.998 146.311 425.328 145.735C425.714 145.07 426.458 144.712 427.038 144.212C428.507 142.943 428.875 140.806 428.818 138.868C428.818 138.807 428.818 138.75 428.818 138.689C428.724 140.377 428.277 142.089 427.024 143.17Z" fill="black"/>
<path opacity="0.1" d="M392.246 142.839C391.168 141.646 389.688 140.844 388.695 139.58C387.855 138.464 387.377 137.118 387.324 135.722C387.176 137.467 387.663 139.208 388.695 140.622C389.688 141.887 391.168 142.684 392.246 143.877C393.288 145.044 393.914 146.523 394.027 148.084C394.098 147.135 393.976 146.181 393.671 145.28C393.365 144.379 392.88 143.549 392.246 142.839Z" fill="black"/>
<path opacity="0.1" d="M429.732 128.595C429.454 129.75 428.96 130.849 428.734 132.014C428.598 132.802 428.549 133.602 428.588 134.401C428.603 133.95 428.652 133.501 428.734 133.057C428.96 131.892 429.454 130.793 429.732 129.637C429.892 128.999 429.944 128.339 429.888 127.684C429.857 127.991 429.805 128.295 429.732 128.595V128.595Z" fill="black"/>
</g>
<path opacity="0.1" d="M62.5222 395.684C87.8714 395.684 108.421 392.379 108.421 388.302C108.421 384.226 87.8714 380.921 62.5222 380.921C37.1729 380.921 16.6233 384.226 16.6233 388.302C16.6233 392.379 37.1729 395.684 62.5222 395.684Z" fill="#19A7CE"/>
<path d="M64.0013 246.888H61.0479V313.475H64.0013V246.888Z" fill="#615353"/>
<path d="M82.5653 313.277L82.3769 316.277L82.1178 320.522L82.0095 322.286L81.7457 326.531L81.6326 328.295L81.3736 332.54L78.3918 380.685C78.2647 382.756 77.3532 384.701 75.8433 386.123C74.3334 387.545 72.3388 388.336 70.2663 388.336H54.7829C52.7047 388.337 50.7049 387.541 49.1939 386.112C47.6829 384.683 46.7753 382.73 46.6573 380.652L43.6756 332.507L43.4165 328.262L43.3082 326.498L43.0397 322.253L42.9314 320.489L42.6723 316.244L42.4839 313.244C42.4513 312.669 42.5359 312.093 42.7325 311.552C42.9291 311.011 43.2337 310.515 43.6276 310.096C44.0216 309.676 44.4967 309.341 45.024 309.111C45.5513 308.881 46.1199 308.761 46.695 308.758H78.3589C78.9366 308.761 79.5075 308.883 80.0366 309.115C80.5657 309.347 81.0419 309.686 81.4358 310.109C81.8297 310.532 82.1331 311.031 82.3273 311.576C82.5216 312.121 82.6026 312.7 82.5653 313.277V313.277Z" fill="#3F3D56"/>
<path d="M82.3768 316.272L82.113 320.508H42.9313L42.6675 316.272H82.3768Z" fill="#9D9CB5"/>
<path d="M82.0046 322.272L81.7455 326.508H43.3033L43.0396 322.272H82.0046Z" fill="#9D9CB5"/>
<path d="M81.6324 328.276L81.3734 332.507H43.6754L43.4116 328.276H81.6324Z" fill="#9D9CB5"/>
<path d="M38.1783 271.849C55.381 284.311 62.5456 303.801 62.5456 303.801C62.5456 303.801 41.8195 303.089 24.6121 290.627C7.40477 278.165 0.230713 258.689 0.230713 258.689C0.230713 258.689 20.9568 259.387 38.1783 271.849Z" fill="#19A7CE"/>
<path d="M0.230713 258.689C0.230713 258.689 21.7435 270.646 28.6443 280.547C35.5452 290.447 62.5268 303.81 62.5268 303.81" stroke="#615353" stroke-width="2" stroke-miterlimit="10"/>
<path d="M49.2622 246.746C58.6267 253.524 62.5269 264.132 62.5269 264.132C62.5269 264.132 51.2218 263.746 41.8809 256.967C32.54 250.189 28.6162 239.577 28.6162 239.577C28.6162 239.577 39.9025 239.963 49.2622 246.746Z" fill="#19A7CE"/>
<path d="M28.6162 239.577C28.6162 239.577 40.3265 246.086 44.0854 251.472C47.8444 256.859 62.5269 264.132 62.5269 264.132" stroke="#615353" stroke-width="2" stroke-miterlimit="10"/>
<path d="M76.1307 263.595C65.3767 275.429 63.1016 290.896 63.1016 290.896C63.1016 290.896 78.2646 287.169 89.0092 275.33C99.7538 263.491 102.038 248.029 102.038 248.029C102.038 248.029 86.8848 251.76 76.1307 263.595Z" fill="#19A7CE"/>
<path d="M102.048 248.034C102.048 248.034 88.0388 260.165 84.4777 268.524C80.9166 276.882 63.1016 290.896 63.1016 290.896" stroke="#615353" stroke-width="2" stroke-miterlimit="10"/>
</g>
<defs>
<linearGradient id="paint0_linear_1105_2" x1="219.287" y1="394.118" x2="219.287" y2="121.651" gradientUnits="userSpaceOnUse">
<stop stop-color="#808080" stop-opacity="0.25"/>
<stop offset="0.54" stop-color="#808080" stop-opacity="0.12"/>
<stop offset="1" stop-color="#808080" stop-opacity="0.1"/>
</linearGradient>
<linearGradient id="paint1_linear_1105_2" x1="89630.6" y1="255345" x2="89630.6" y2="76756.4" gradientUnits="userSpaceOnUse">
<stop stop-color="#808080" stop-opacity="0.25"/>
<stop offset="0.54" stop-color="#808080" stop-opacity="0.12"/>
<stop offset="1" stop-color="#808080" stop-opacity="0.1"/>
</linearGradient>
<clipPath id="clip0_1105_2">
<rect width="550" height="407" fill="white"/>
</clipPath>
</defs>
</svg>
