<svg width="256" height="256" viewBox="0 0 256 256" fill="none" xmlns="http://www.w3.org/2000/svg">
<circle cx="128" cy="128" r="128" fill="#2F5DD6"/>
<rect x="96.5184" y="45.8757" width="61.9626" height="163.248" rx="5" fill="#F3F9FF"/>
<rect x="45.8762" y="157.29" width="59.5794" height="163.248" rx="5" transform="rotate(-90 45.8762 157.29)" fill="#F3F9FF"/>
<path d="M143.92 97.7101C134.309 97.7101 128.903 104.749 127.401 108.268C126.15 104.749 121.094 97.7101 110.882 97.7101C100.67 97.7101 95.6142 104.749 94.3627 108.268C88.3557 123.352 102.873 139.189 110.882 145.223L127.401 157.29L143.92 145.223C164.344 129.536 163.443 114.05 160.44 108.268C158.938 104.749 153.532 97.7101 143.92 97.7101Z" fill="#F74C4C"/>
<path d="M104.264 126.011H113.797L118.563 138.225L122.138 115.584L128.096 131.075L129.883 120.947L134.649 134.054L138.82 119.159L141.799 126.011H148.948" stroke="white" stroke-width="2"/>
<path d="M106.008 126.01C106.008 125.517 104.593 125 104.264 125C103.935 125 103.668 125.517 103.668 126.01C103.668 126.504 103.935 127 104.264 127C104.593 127 106.008 126.504 106.008 126.01Z" fill="white"/>
<path d="M154.906 126.19C154.906 127.769 153.626 129.049 152.047 129.049C150.467 129.049 147.757 127.769 147.757 126.19C147.757 124.61 150.467 123.33 152.047 123.33C153.626 123.33 154.906 124.61 154.906 126.19Z" fill="white"/>
</svg>
